# xmcd
#
# Track frame offsets: 
#        150
#        13632
#        27567
#        47337
#        67960
#        80265
#        94497
#        109322
#        123177
#        135960
#        147140
#        165207
#
# Disc length: 2436 seconds
#
# Revision: 1
# Processed by: cddbd v1.5.1PL0 Copyright (c) Steve Scherf et al.
# Submitted via: ExactAudioCopy v0.95a4
#
DISCID=8f09820c
DTITLE=Dudley Connell and Don Rigsby - Another Saturday Night
DYEAR=2001
DGENRE=Bluegrass
TTITLE0=Another Saturday Night
TTITLE1=I'm Beside Myself
TTITLE2=Too Late
TTITLE3=Hollis Brown
TTITLE4=Dreams Of Home
TTITLE5=So Sad (To Watch Good Love Go Bad) 
TTITLE6=Where Is My Sailor Boy
TTITLE7=You May Sing Of The Beauties
TTITLE8=I'll Take The Chance
TTITLE9=I Can't Forget
TTITLE10=Let Me Fly Low
TTITLE11=The Ballad Of Ira Hayes
EXTD=
EXTT0=
EXTT1=
EXTT2=
EXTT3=
EXTT4=
EXTT5=
EXTT6=
EXTT7=
EXTT8=
EXTT9=
EXTT10=
EXTT11=
PLAYORDER=
